<?xml version="1.0" encoding="utf-8"?>
<!-- Generator: Adobe Illustrator 28.1.0, SVG Export Plug-In . SVG Version: 6.00 Build 0)  -->
<svg version="1.1" xmlns="http://www.w3.org/2000/svg" xmlns:xlink="http://www.w3.org/1999/xlink" x="0px" y="0px"
	 viewBox="0 0 973.7 594.5" style="enable-background:new 0 0 973.7 594.5;" xml:space="preserve">
<style type="text/css">
	.st0{fill:#FFB6B6;}
	.st1{fill:#E6E6E6;}
	.st2{fill:#5D84C9;}
	.st3{fill:#2F2E41;}
	.st4{fill:#352B1E;}
	.st5{fill:#A0616A;}
	.st6{opacity:0.13;fill:#FFFFFF;enable-background:new    ;}
	.st7{opacity:0.1;enable-background:new    ;}
	.st8{fill:#3D342A;}
	.st9{fill:#E2E2E2;}
	.st10{fill:#739AF0;}
	.st11{fill:#1E1910;}
	.st12{fill:#F2F2F2;}
	.st13{fill:#7DA6EF;}
	.st14{fill:#F6BE10;}
</style>
<g id="Warstwa_2">
</g>
<g id="Warstwa_3">
	<path id="uuid-f8ba9176-caa4-4aaa-aa33-5402b823e72a-5385" class="st0" d="M458.9,140.9c6.5-6.6,15.2-8.6,19.4-4.5
		c4.2,4.1,2.3,12.8-4.1,19.4c-2.6,2.7-5.7,4.7-9.2,5.9L437,189.4l-12.7-13.3l28.8-25.8C454.3,146.7,456.2,143.5,458.9,140.9z"/>
	<path class="st1" d="M369.8,118.1l29.2,64.8l46.6-25.2l16.7,8.9c0,0-38.1,63.7-64.2,56.5s-72.5-73-64.1-93.4
		S369.8,118.1,369.8,118.1L369.8,118.1z"/>
	<g>
		<path id="uuid-070545a9-7559-45f6-9b62-076b2f028fa8-5386" class="st0" d="M505.2,154.7c-6.8-6.3-9-14.9-5-19.2
			c4-4.3,12.8-2.7,19.5,3.6c2.7,2.5,4.9,5.6,6.1,9.1l28.4,27.1l-13,13.1l-26.6-28.1C511.1,159.1,507.8,157.2,505.2,154.7z"/>
		<path class="st2" d="M648.2,158.8l-54.8,58.3c0,0-12.3,12.2-32.6-5.4c-20.2-17.6-42.8-46.4-42.8-46.4l12.6-13.7l22.4,20
			c0,0,13.3,5.3,14.2,8.8s-1.7,4.9,2.5,3.8c4.1-1.1,4.2-3.6,4.5,0.2s-2.3,8.1,2.5,3.9s6.2-1.7,6.2-1.7l35-46.4
			c0,0,22.6-17.9,29.1-1.9C653.7,154.4,648.2,158.8,648.2,158.8L648.2,158.8z"/>
	</g>
	<g>
		<polygon class="st0" points="357,549.9 378.3,549.9 388.4,467.8 357,467.8 		"/>
		<path class="st3" d="M429.9,549.4L429.9,549.4c0.7,1.1,1,4.7,1,6l0,0c0,4-3.2,7.2-7.2,7.2h-66c-2.7,0-4.9-2.2-4.9-4.9V555
			c0,0-3.3-8.3,3.5-18.4c0,0,8.3,8,20.8-4.5l3.7-6.7l26.6,19.5l14.8,1.8C425.4,547.1,428.3,546.6,429.9,549.4L429.9,549.4
			L429.9,549.4z"/>
	</g>
	<rect x="602.4" y="92.9" class="st4" width="52.8" height="78"/>
	<polygon class="st5" points="643.3,147.1 641.5,124.7 616.9,124.7 611.5,148.4 	"/>
	<polygon class="st6" points="643.3,147.1 641.5,124.7 616.9,124.7 611.5,148.4 	"/>
	<polygon class="st0" points="373.1,122.3 373.5,93.5 355.8,82.5 336.5,106.1 	"/>
	<polygon class="st7" points="373.1,122.3 374.2,94.3 355.8,82.5 362.1,117.2 	"/>
	<circle class="st0" cx="625.3" cy="105" r="26.9"/>
	<path class="st8" d="M618.6,76.7c0,0,0-11,10.2-8.7c10.2,2.4,13.4,6.3,13.4,6.3s3.9,6.3,10.2,7.1s11.8,18.9,11,22.8
		c-0.8,3.9-4.7,14.2,0.8,18.9c5.5,4.7,13.4,11.8,11,18.9c-2.4,7.1-9.5,25.2-9.5,25.2s19.8,2.9,18.2,15.2c0,0-9.5-7.4-22.1-7.4
		c-12.6,0-11-22.9-11-22.9s-0.8-14.2-3.2-18.1c-2.4-3.9,0.8-26-11-37.8C624.9,84.6,618.6,76.7,618.6,76.7L618.6,76.7z"/>
	<path class="st4" d="M621.7,74.4c0,0-15,3.2-20.5,18.1c-5.5,15-2.7,17.8-2.7,17.8s-1.2,9-7.9,12.2c-6.7,3.2-1.2,16.6-1.2,16.6
		s-1.6,13.4-22.8,18.1s26.7,41,26.7,41s-3.4-17.1,18.6-17.9c22.1-0.8-4.3-41.2-4.3-41.2l-2.4-26c0,0,4.7-29.9,18.9-33.9
		C638.3,75.1,621.7,74.4,621.7,74.4L621.7,74.4z"/>
	<circle class="st0" cx="373.1" cy="71" r="31.5"/>
	<path class="st3" d="M416.1,312.2l-29.3,199.7h-36.8l4.9-114l2.6-59.9l-7.5-28.5c0,0-3.4-6.3-6.3-14c-3.2-8.7-5.8-19.1-2-24
		c1.4-1.8,5-3.2,10-4.2c3-0.6,6.5-1.1,10.3-1.5c21.8-2.2,52.7-0.8,52.7-0.8l0.8,26l0.4,14.5L416.1,312.2z"/>
	<g>
		<polygon class="st0" points="235.7,518.1 254.5,528.2 302.3,460.6 274.6,445.7 		"/>
		<path class="st3" d="M300.2,552.2L300.2,552.2c0.1,1.3-1.3,4.6-2,5.8l0,0c-1.9,3.5-6.3,4.8-9.8,2.9l-58.1-31.2
			c-2.4-1.3-3.3-4.3-2-6.7l1.3-2.4c0,0,1-8.8,11.8-14.6c0,0,3.6,11,20.5,5.9l6.4-4.1l14.2,29.8l12.1,8.6
			C297.3,548,300.1,549,300.2,552.2L300.2,552.2L300.2,552.2z"/>
	</g>
	<path class="st3" d="M415.9,305.4l-15.6,31.2l-45.5,61.2L280,498.7l-32.4-17.4l88.9-149.7l6.9-28.7c0,0,0-3.1,0.3-7.5
		c0.6-8.8,2.5-22.7,8-28.2c0.7-0.7,1.6-1.3,2.4-1.7c1.7-0.7,4.4-0.6,7.9,0.3c14.5,3.5,41.6,18.3,53.5,25.2L415.9,305.4L415.9,305.4z
		"/>
	<g>
		<polygon class="st0" points="641.3,552.4 623,552.4 614.3,481.8 641.4,481.8 		"/>
		<path class="st3" d="M578.6,552L578.6,552c-0.6,1-0.9,4.1-0.9,5.2l0,0c0,3.4,2.8,6.2,6.2,6.2h56.7c2.3,0,4.2-1.9,4.2-4.2v-2.4
			c0,0,2.8-7.1-3-15.8c0,0-7.2,6.8-17.9-3.9l-3.2-5.7L598,548.1l-12.7,1.6C582.5,550,580,549.6,578.6,552L578.6,552L578.6,552z"/>
	</g>
	<g>
		<polygon class="st0" points="713.5,530.8 696.6,537.8 661.6,475.9 686.5,465.6 		"/>
		<path class="st3" d="M655.3,554.4L655.3,554.4c-0.2,1.1,0.7,4.1,1.2,5.1l0,0c1.3,3.2,4.9,4.7,8.1,3.4l52.4-21.6
			c2.2-0.9,3.2-3.4,2.3-5.5l-0.9-2.2c0,0-0.1-7.6-8.8-13.5c0,0-4,9.1-18,3.2l-5.1-4.1l-14.8,24.2l-11.1,6.3
			C658.2,551,655.7,551.6,655.3,554.4L655.3,554.4L655.3,554.4z"/>
	</g>
	<path class="st3" d="M649.7,310.1l-7.5,28.5l2,46.3l3.3,76.9l0.1,2.2l0.4,8.6l1.7,39.9h-36.8l-16.4-111.5l-13-88.2l1.4-44.9
		l0.1-2.3c0,0,65.8-2.9,73,6.4S649.7,310.1,649.7,310.1L649.7,310.1z"/>
	<path class="st3" d="M701,483.9l-6.2,3.2l-23.1,11.9l-3.4,1.7L648,472.7l-51.5-71.6l-13-88.2l1.4-44.9c5.8-1.9,10.5-2.6,12.8-1.5
		c10.6,5,10.1,37.6,10.1,37.6l6.5,28.8l29.9,52.1L701,483.9L701,483.9z"/>
	<path class="st1" d="M761.7,565.4L761.7,565.4c0,1.5-0.4,2.7-0.8,2.7H178.6v-5.4h582.2C761.3,562.7,761.7,563.9,761.7,565.4z"/>
	<path class="st9" d="M340.6,100l35.8,17.2c0,0,37.9,112.4,37.9,118.1s10.7,9.3,4.3,15.7c-6.4,6.4,12,11.9,2.1,17
		c-9.9,5.1-71.9,33.3-78.8,30.8c-19-7,0.8-32.7,0.8-32.7s-14.3-11.5-12.1-17.2c2.1-5.7-12.9-115.2-12.9-115.2L340.6,100L340.6,100z"
		/>
	<path class="st3" d="M371.2,78.5l4.1,8.1c0,0,4.1-14.6,10.5-17.8c6.5-3.2,7.3-8.1,7.3-8.1s8.1,10.5,13.8,8.1
		c5.7-2.4,8.1-4.1,1.6-13.8s-4.9-4.9-4.9-4.9s-5.7-8.1-4.9-5.7c0.8,2.4-4.9-6.5-4.9-4.1s-4.1-4.9-4.1-2.4c0,2.4-17-5.7-14.6-2.4
		c2.4,3.2-14.6-6.5-22.7,6.5s-19.3,10.6-15.3,18.7c4,8.1,2.4,30,2.4,30h11.2C350.8,90.7,362.3,68.8,371.2,78.5L371.2,78.5z"/>
	<path class="st10" d="M609.7,147.2l0.7-0.2l32.3-9.1l25.8,35.1l-17.2,73l6.4,29.3c0,0-52.2-13.6-73-2.1c0,0-1.4-6.5,0-9.7
		c1.4-3.2,3.6-16.4,1.4-22.3s4.3-33.8,4.3-33.8s-2.1-18.6,7.2-27.9S609.7,147.2,609.7,147.2L609.7,147.2z"/>
	<path class="st11" d="M580.4,279L467,222.7c-0.6-0.3-1.1-0.7-1.5-1.1l-17.7-20.9c-1.2-1.4-1.4-3.3-0.6-5l33.2-69.6
		c0.6-1.2,1.7-2.1,3-2.5c1.3-0.4,2.7-0.1,3.8,0.7l80,54.9c1.6,1.1,2.4,3.2,1.8,5.1l-16.2,56.5c-0.4,1.5,0.1,3.2,1.4,4.2l32.1,24.1
		c1.7,1.3,2.3,3.7,1.4,5.6l-1,2.2c-0.5,1.1-1.5,2-2.7,2.4c-0.5,0.2-1,0.3-1.5,0.3C581.8,279.5,581.1,279.4,580.4,279z"/>
	<path class="st12" d="M579.5,265.3l-31.6-26.3c-0.3-0.2-0.5-0.5-0.6-0.8c-0.3-0.6-0.3-1.3-0.1-1.9l18-52.6c0.5-1.4,0-2.9-1.2-3.7
		L489,128.7c-0.8-0.5-1.7-0.7-2.6-0.5c-0.9,0.2-1.7,0.9-2.1,1.7l-31.6,64.2c-0.5,1-0.4,2.1,0.1,3c0.1,0.1,0.1,0.3,0.2,0.4l15.9,21
		c0.3,0.4,0.7,0.7,1.2,1l106,51.3c0.4,0.2,0.9,0.3,1.4,0.3c0.8,0,1.7-0.3,2.3-0.9c0.1-0.1,0.1-0.2,0.2-0.2c0.5-0.6,0.8-1.4,0.7-2.2
		C580.6,266.7,580.2,265.9,579.5,265.3z"/>
	<path id="uuid-03f01c0a-1974-4ec8-8b69-52a915a70377-5387" class="st0" d="M449.6,199c8.9-2.6,17.4-0.2,19.1,5.5
		c1.7,5.7-4.2,12.4-13.1,15c-3.5,1.1-7.3,1.3-10.9,0.7L407,230.8l-4.6-17.8l37.7-8.6C442.8,201.8,446.1,200,449.6,199L449.6,199z"/>
	<path class="st1" d="M382.8,135.8l-5.9,70.8l53,0.6l10.3,15.8c0,0-64.3,37.2-83.6,18.2c-19.3-19-27.9-99-10.7-112.7
		S382.8,135.8,382.8,135.8z"/>
	<g>
		<path id="uuid-7eb47ac4-3db4-4d62-bd0a-b38893e38622-5388" class="st0" d="M556.5,263.7c-9.2-0.7-16.4-6-15.9-11.9
			c0.4-5.9,8.3-10.1,17.5-9.4c3.7,0.2,7.3,1.3,10.5,3.2l39.1,3.4l-2,18.3l-38.3-5.3C563.9,263.4,560.2,264,556.5,263.7L556.5,263.7z
			"/>
		<path class="st13" d="M670.9,177.7l-6.4,79.8c0,0-2,17.2-28.8,16.1c-26.8-1.1-62.3-9.5-62.3-9.5l1.3-18.6l29.9,1.6
			c0,0,13.7-4.1,16.6-2s1.8,4.9,4.3,1.4c2.5-3.5,1.1-5.4,3.6-2.7c2.5,2.8,3.3,7.8,4.4,1.5s3.8-5.2,3.8-5.2l-1.6-58.1
			c0,0,6.5-28.1,21.6-19.6S670.9,177.7,670.9,177.7L670.9,177.7z"/>
	</g>
	<path class="st14" d="M475,191.8c-1.1-0.9-1.3-1.8-0.7-3c6.1-12.5,12.1-25.1,18.2-37.6c0.1-0.1,0.1-0.2,0.1-0.3
		c0.5-0.6,1.1-0.8,1.9-0.4c0.1,0,0.1,0.1,0.2,0.1c0.1,0,0.1,0.1,0.2,0.1c0.8,0.7,0.9,1.5,0.6,2.7c-0.2,0.4-0.4,0.8-0.6,1.2
		c-0.2,0.4-0.1,0.6,0.2,0.7c0.6,0.5,1.1,0.9,1.7,1.4c0.1,0.1,0.3,0.2,0.4,0.4c0.2,0.3,0.3,0.2,0.4,0c0.2-0.5,0.5-1.1,0.7-1.6
		c0.3-0.6,0.6-1.3,0.9-1.9c0.3-0.6,0.6-1.3,0.9-1.9c0.3-0.6,0.3-0.6,1-0.2c0.1,0.1,0.3,0.2,0.4,0.3c0.6,0.5,1.2,0.9,1.7,1.4
		c0.6,0.5,1.1,1,1.7,1.5c0.5,0.6,1.1,1.1,1.6,1.6c0.5,0.6,1,1.2,1.6,1.8c0.5,0.6,1,1.3,1.5,1.9c0.5,0.7,0.9,1.4,1.4,2.1
		c0,0,0,0,0,0.1c0.4,0.7,0.9,1.4,1.3,2.2c0.9,1.6,1.6,3.2,2.3,4.9c0.1,0.3,0.2,0.6,0.3,0.9c0.2,0.7,0.5,1.4,0.7,2.1
		c0.1,0.4,0.2,0.8,0.3,1.2c0.2,0.7,0.3,1.4,0.5,2.1l0,0c0,0.2,0.1,0.3,0.1,0.5c0,0.1,0,0.2,0,0.2c0.2,0.9,0.3,1.9,0.5,2.8
		c0,0.2,0,0.3,0.1,0.5c0.1,0.9,0.2,1.8,0.2,2.6c0.1,0.9,0,1.7,0.1,2.6c0.2,0.7,0.4,1.3,0.5,2c0.1,0.4,0.2,0.8,0.3,1.1
		c0.1,0.6,0.2,1.2,0.2,1.8c0,0.2,0.1,0.3,0.3,0.3l0,0c0.1,0,0.1,0.1,0.2,0.1c0.6,0.3,1.2,0.8,1.8,1.3c0.8,0.9,1.3,1.9,1.6,3.1
		c0,0.2,0.2,0.3,0.3,0.3c0.3,0.2,0.7,0.3,1,0.4c0.7,0.3,1.4,0.5,2.1,0.6c0.7,0.2,1.4,0.3,2.2,0.3c0.6,0.1,1.2,0.1,1.7,0
		c0.3,0,0.6,0,0.9-0.1c0.6,0,1.3-0.2,1.9-0.4c0.3-0.1,0.5-0.2,0.8-0.3c0.6-0.1,1.1-0.3,1.6-0.6c0.2,0,0.2-0.1,0.3-0.2
		c0.2-0.5,0.5-1,0.7-1.6c0.1-0.2,0.2-0.3,0.3-0.5c0.2-0.5,0.4-1,0.9-1.2c0.2,0,0.3,0,0.5,0c0,0,0.1,0,0.1,0c0,0,0,0,0,0
		c0.4,0.2,0.6,0.6,0.8,1.1c0,0.3-0.1,0.6-0.2,0.9c-0.4,0.7-0.4,0.7,0.4,1.2c0.5,0.4,1.1,0.8,1.6,1.2c0.6,0.5,1.3,0.9,1.9,1.4
		c0.5,0.4,1.1,0.8,1.6,1.2c0.6,0.4,1.2,0.9,1.8,1.3c0.4,0.3,0.8,0.5,1.1,0.8c0.2,0.2,0.4,0.1,0.5-0.1c0.2-0.4,0.4-0.9,0.8-1.1
		c0.1,0,0.1,0,0.2,0c0.6,0.1,1,0.4,1.1,1.1c0,0.3-0.1,0.6-0.2,0.9c-2,4.1-4,8.3-6,12.4c-0.1,0.2-0.2,0.4-0.3,0.6
		c-1.9,4-3.8,8-5.8,12c-0.1,0.2-0.3,0.3-0.5,0.4c-0.5,0.1-0.9-0.2-1.3-0.7c0-0.1-0.1-0.3-0.1-0.4c0-0.5,0.2-0.9,0.4-1.3
		c0.1-0.2,0.1-0.4-0.1-0.5c-0.4-0.3-0.8-0.6-1.2-0.9c-0.5-0.4-1.1-0.8-1.6-1.2c-0.6-0.5-1.3-0.9-1.9-1.4c-0.5-0.4-1.1-0.8-1.6-1.2
		c-0.6-0.4-1.2-0.9-1.8-1.3c-0.1-0.1-0.1-0.1-0.2-0.2c-0.3-0.3-0.5-0.3-0.7,0.1c-0.1,0.4-0.3,0.8-0.7,1c-0.3,0-0.7,0-0.9-0.3
		c-0.2-0.2-0.3-0.5-0.4-0.8c0-0.2,0-0.5,0.1-0.7c0.2-0.4,0.4-0.8,0.6-1.2c0.3-0.5,0.5-1,0.8-1.5c0.1-0.1,0.1-0.3,0-0.4
		c-0.1-0.7-0.2-1.4-0.3-2c-0.1-0.3-0.1-0.6-0.2-0.9c-0.1-0.8-0.4-1.6-0.7-2.3c-0.1-0.3-0.2-0.7-0.3-1c-0.2-0.6-0.5-1.2-0.8-1.7
		c-0.4-0.8-0.8-1.6-1.3-2.3c-0.1-0.1-0.1-0.2-0.2-0.3c-0.4-0.6-0.8-1.2-1.3-1.7c-0.3-0.3-0.5-0.6-0.8-0.8c-0.2-0.2-0.3-0.2-0.6-0.2
		c-1.8,0.4-3.4-0.1-4.8-1.6c-0.1-0.1-0.2-0.2-0.4-0.1c-0.5,0.2-1,0.4-1.4,0.7l0,0c-0.1,0-0.2,0-0.2,0.1c-0.2,0.1-0.4,0.1-0.5,0.2
		c-0.6,0.1-1.2,0.3-1.8,0.4c-1.3,0.8-2.7,1.5-4,2.2c-0.1,0-0.2,0-0.3,0.1c-0.7,0.3-1.4,0.5-2.1,0.8c-0.3,0.1-0.7,0.2-1,0.3
		c-0.5,0.1-1,0.3-1.6,0.4c-0.3,0.1-0.7,0.1-1,0.2c-0.6,0.1-1.2,0.2-1.9,0.3c-0.3,0-0.5,0-0.8,0.1c-1.5,0-3.1,0-4.6-0.1
		c-0.7-0.1-1.4-0.2-2.2-0.3c0,0,0,0-0.1,0c-0.7-0.2-1.5-0.4-2.2-0.5c-0.3-0.1-0.7-0.2-1-0.3c-1-0.3-2-0.8-3-1.1
		c-0.6-0.3-1.3-0.6-1.9-1c-0.6-0.3-1.3-0.7-1.9-1c-0.6-0.4-1.2-0.8-1.8-1.2c-0.1-0.1-0.3-0.2-0.4-0.3c-0.6-0.4-0.6-0.4-0.3-1.1
		c0.3-0.6,0.6-1.3,0.9-1.9c0.3-0.6,0.6-1.3,0.9-1.9c0.2-0.4,0.4-0.7,0.6-1.1c0.4-0.8,0.4-0.8-0.4-1.2c-0.6-0.4-1.2-0.8-1.8-1.2
		c-0.2-0.1-0.3-0.5-0.5-0.1c-0.2,0.5-0.5,0.9-0.7,1.5c0,0.1-0.1,0.2-0.1,0.2c0,0.1-0.1,0.1-0.1,0.2c-0.4,0.4-0.9,0.6-1.5,0.4
		C475.3,191.9,475.2,191.9,475,191.8C475,191.8,475,191.8,475,191.8z M509,175.3c0.5,0.7,0.9,1.4,1.4,2.2c0.3,0.6,0.7,1.2,1,1.8
		c-0.1-0.9-0.3-1.8-0.6-2.7c-0.1-0.4-0.2-0.9-0.4-1.3c-0.1-0.6-0.3-1.2-0.6-1.8c-0.2-0.5-0.3-1.1-0.6-1.6c-0.1-0.4-0.3-0.8-0.5-1.2
		c-0.3-0.9-0.7-1.7-1.2-2.5c-0.3-0.8-0.8-1.6-1.3-2.4c-0.8-1.5-1.8-2.8-2.8-4.1c-0.5-0.6-0.9-1.1-1.5-1.6c-0.4-0.6-1-1-1.5-1.5
		c-0.2-0.2-0.3-0.2-0.4,0c-0.2,0.4-0.4,0.8-0.5,1.2c-0.3,0.6-0.6,1.3-0.9,1.9c-0.1,0.1-0.1,0.3-0.2,0.4c-0.1,0.2-0.1,0.3,0.1,0.4
		c0.5,0.5,1,1,1.4,1.4c0.5,0.6,1.1,1.1,1.6,1.7c1,1.2,2,2.4,3,3.6c0.5,0.6,1,1.3,1.5,1.9c0.5,0.6,1,1.3,1.5,1.9c0,0,0,0,0,0
		C508.1,173.9,508.6,174.6,509,175.3z M484.6,196c-0.5-0.2-1-0.4-1.4-0.7c-0.5-0.3-0.7-0.1-0.8,0.3c0,0,0,0.1,0,0.1
		c-0.3,0.6-0.6,1.2-0.9,1.9c-0.2,0.4-0.3,0.7-0.5,1.1c-0.2,0.3-0.1,0.4,0.2,0.6c0.5,0.3,1.1,0.5,1.6,0.8c0.6,0.3,1.3,0.6,1.9,0.8
		c1.4,0.6,2.9,0.9,4.4,1.1c0.8,0.1,1.5,0.2,2.3,0.2c0.1,0,0.3,0,0.4,0c1.9,0.1,3.7-0.1,5.5-0.4c1.3-0.2,2.6-0.5,3.8-1
		c0,0,0.1,0,0.1,0c0-0.1,0-0.1-0.1-0.1c-1.3-0.2-2.6-0.4-3.9-0.6c-0.7-0.2-1.4-0.4-2.2-0.5l0,0c-0.7-0.2-1.4-0.4-2.1-0.6
		c-0.7-0.2-1.4-0.4-2.1-0.7c-1.4-0.5-2.7-1-4.1-1.5C486,196.6,485.3,196.3,484.6,196z"/>
</g>
</svg>
