<?xml version="1.0" encoding="UTF-8"?><svg id="a" xmlns="http://www.w3.org/2000/svg" viewBox="0 0 800 800"><path d="M641.66,282.38h0c-7.99-2.73-16.04-5.27-24.14-7.63,1.34-5.47,2.58-10.97,3.72-16.5,18.28-88.91,6.33-160.53-34.47-184.11-39.06-22.62-103.12.95-167.75,57.33-6.35,5.56-12.58,11.29-18.67,17.19-4.06-3.92-8.23-7.75-12.5-11.5-67.73-60.28-135.63-85.67-176.38-62.02-39.06,22.67-50.67,90-34.22,174.27,1.65,8.33,3.49,16.63,5.55,24.89-9.61,2.73-18.89,5.66-27.77,8.75-79.31,27.73-130.03,71.22-130.03,116.31s54.44,93.31,137.14,121.64c6.71,2.28,13.48,4.4,20.31,6.36-2.22,8.84-4.18,17.79-5.89,26.83-15.62,82.81-3.44,148.55,35.55,171.08,40.27,23.27,107.81-.64,173.66-58.3,5.21-4.56,10.42-9.38,15.63-14.45,6.58,6.36,13.35,12.54,20.31,18.53,63.75,54.97,126.7,77.17,165.62,54.58,40.23-23.34,53.31-93.97,36.33-179.89-1.3-6.56-2.8-13.26-4.5-20.09,4.75-1.41,9.4-2.86,13.95-4.36,85.94-28.55,141.92-74.7,141.92-121.88-.03-45.31-52.38-89.08-133.38-117.03ZM440.09,155.69c55.36-48.3,107.11-67.36,130.7-53.73h0c25.11,14.52,34.88,73.05,19.09,149.81-1.04,5-2.17,9.98-3.38,14.95-33.04-7.51-66.54-12.82-100.28-15.88-19.32-27.83-40.5-54.32-63.39-79.3,5.6-5.44,11.34-10.72,17.22-15.86h.03ZM246.45,437.89c6.78,13.12,13.87,26.09,21.27,38.89,7.53,13.06,15.38,25.93,23.55,38.61-23.22-2.52-46.29-6.24-69.13-11.14,6.63-21.44,14.78-43.7,24.31-66.36ZM246.45,362.37c-9.38-22.17-17.31-43.98-23.83-65.05,21.41-4.8,44.22-8.72,68-11.69-7.97,12.44-15.64,25.06-23,37.86s-14.44,25.76-21.22,38.88h.05ZM263.48,400.14c9.88-20.59,20.51-40.79,31.91-60.59h0c11.39-19.79,23.51-39.13,36.36-58.02,22.31-1.69,45.19-2.58,68.3-2.58s46.12.89,68.42,2.59c12.72,18.84,24.77,38.11,36.14,57.81s22.15,39.8,32.33,60.31c-10.04,20.67-20.79,40.95-32.25,60.84h0c-11.36,19.79-23.34,39.19-35.94,58.19-22.27,1.56-45.31,2.42-68.75,2.42s-46.05-.73-67.91-2.16c-12.95-18.95-25.17-38.37-36.66-58.27s-22.16-40.08-32-60.56h.05ZM532.42,476.56c7.55-13.1,14.8-26.38,21.75-39.83h0c9.52,21.6,17.93,43.67,25.19,66.13-23.1,5.2-46.46,9.19-69.98,11.95,7.94-12.59,15.62-25.34,23.05-38.25ZM553.86,362.39c-6.92-13.18-14.11-26.2-21.58-39.06h0c-7.29-12.69-14.89-25.22-22.8-37.59,23.92,3.03,46.88,7.06,68.39,11.98-6.92,21.95-14.93,43.53-24.02,64.67ZM400.36,194.5h0c15.6,17.05,30.33,34.87,44.14,53.41-29.53-1.41-59.08-1.41-88.66,0,14.58-19.28,29.5-37.17,44.52-53.41ZM227.59,102.91c25.09-14.56,80.58,6.25,139.06,58.23,3.73,3.33,7.5,6.81,11.25,10.42-23.01,24.97-44.34,51.44-63.84,79.23-33.67,3.03-67.1,8.25-100.09,15.62-1.91-7.67-3.63-15.39-5.16-23.16h0c-14.14-72.23-4.78-126.69,18.78-140.36ZM191.02,496.42c-6.25-1.78-12.42-3.71-18.52-5.8-36.56-12.5-66.77-28.81-87.5-46.58-18.56-15.92-27.97-31.81-27.97-44.69,0-27.36,40.72-62.27,108.62-85.94,8.53-2.97,17.14-5.68,25.81-8.14,10.09,32.41,22.3,64.12,36.56,94.92-14.43,31.23-26.8,63.37-37.02,96.22ZM364.66,642.78c-29.11,25.5-58.27,43.58-83.97,52.69h0c-23.09,8.17-41.48,8.41-52.59,1.98-23.66-13.67-33.5-66.47-20.08-137.28,1.59-8.33,3.42-16.67,5.47-25,33.32,7.18,67.09,12.08,101.08,14.67,19.7,27.94,41.2,54.56,64.37,79.69-4.66,4.58-9.42,8.98-14.28,13.25ZM401.25,606.5c-15.19-16.42-30.34-34.59-45.13-54.12,14.36.56,28.99.84,43.87.84s30.41-.33,45.31-1c-13.76,18.83-28.46,36.95-44.06,54.28h0ZM595.81,651.17c-4.47,24.13-13.45,40.22-24.56,46.66-23.64,13.72-74.19-4.11-128.69-51.13-6.25-5.38-12.5-11.14-18.86-17.19,22.72-25.23,43.72-51.95,62.86-80,34.17-2.9,68.11-8.14,101.56-15.7,1.53,6.19,2.89,12.25,4.06,18.19h0c7.52,37.97,8.59,72.31,3.63,99.17ZM623,490.8h0c-4.09,1.36-8.31,2.67-12.59,3.95-10.49-32.56-23.18-64.38-37.98-95.22,14.25-30.43,26.44-61.78,36.5-93.84,7.67,2.23,15.12,4.58,22.3,7.06,69.41,23.94,111.75,59.38,111.75,86.61,0,29.06-45.73,66.78-119.97,91.44Z" style="fill:#ffcb74; stroke-width:0px;"/><path d="M400,466.48c37.11.12,67.29-29.86,67.41-66.97.12-37.11-29.86-67.29-66.97-67.41-37.11-.12-67.29,29.86-67.41,66.97,0,.07,0,.15,0,.22-.08,37.03,29.88,67.11,66.91,67.19.02,0,.04,0,.06,0Z" style="fill:#ffcb74; stroke-width:0px;"/></svg>