<?xml version="1.0" encoding="UTF-8"?><svg id="a" xmlns="http://www.w3.org/2000/svg" viewBox="0 0 800 800"><path d="M296.54,360.37l14.27-241.22c.23-3.88,3.06-7.11,6.88-7.86l232.17-45.5c4.62-.91,9.1,2.1,10.01,6.72.26,1.33.2,2.7-.17,4l-43.41,150.55c-1.3,4.53,1.31,9.25,5.84,10.55,1.29.37,2.65.43,3.97.18l66.54-12.82c4.62-.9,9.1,2.11,10,6.73.36,1.86.1,3.78-.75,5.47l-189.2,377.56-3.43,5.29c-1.5,2.44-4.16,3.92-7.02,3.9-4.93,0-9.75-4.24-8.5-10.28l30.51-147.71c.95-4.61-2.01-9.12-6.62-10.08-1.39-.29-2.83-.22-4.19.19l-39.93,12.12c-4.5,1.37-9.27-1.17-10.64-5.67-.41-1.36-.48-2.8-.2-4.19l19.23-94.04c.96-4.61-2-9.12-6.62-10.08-1.22-.25-2.48-.24-3.69.05l-64.65,14.94c-4.59,1.05-9.16-1.81-10.22-6.4-.18-.79-.25-1.6-.2-2.4h.03ZM713.84,139.51l-166.57,30.32-15.16,52.58,57.87-11.15c9.19-1.83,18.54,2.28,23.41,10.28,4.1,6.61,4.46,14.88.95,21.82l-189.23,377.59-.36.7-.42.64-3.4,5.29c-4.08,6.4-11.14,10.28-18.72,10.31-6.85-.04-13.32-3.12-17.67-8.42-4.23-5.23-5.86-12.09-4.46-18.67l28.67-138.79-31.21,9.47c-8.73,2.63-18.18-.25-23.96-7.3-4.27-5.21-5.96-12.07-4.6-18.67l17.55-85.82-56.48,13.04c-7.78,1.78-15.92-.69-21.4-6.49-4.22-4.51-6.4-10.55-6.05-16.72l10.84-183.07-207.31-37.06c-9.27-1.67-18.14,4.49-19.81,13.75-.71,3.94-.01,8.01,1.98,11.49l320.02,561.11c4.66,8.19,15.07,11.04,23.26,6.38,2.7-1.54,4.93-3.78,6.45-6.5L731.79,164.59c4.58-8.23,1.63-18.61-6.6-23.2-3.45-1.92-7.46-2.59-11.35-1.88Z" style="fill:#ffcb74; stroke-width:0px;"/></svg>