<?xml version="1.0" encoding="UTF-8"?><svg id="a" xmlns="http://www.w3.org/2000/svg" viewBox="0 0 800 800"><path d="M174.01,502.35L239.91,78.46c1.25-8.25,8.95-13.92,17.2-12.66,4.73.72,8.85,3.64,11.08,7.87l70.86,132.95-165.05,295.74ZM642.01,605.2l-62.75-390.09c-1.39-8.24-9.2-13.79-17.44-12.4-3.08.52-5.93,1.98-8.14,4.18l-395.69,398.31,218.94,123.39c13.73,7.71,30.49,7.71,44.22,0l220.86-123.39ZM464.09,264.8l-50.72-97.03c-3.87-7.39-13-10.23-20.39-6.36-2.72,1.42-4.94,3.64-6.36,6.36l-222.65,398.98,300.11-301.95Z" style="fill:#ffcb74; stroke-width:0px;"/></svg>