<?xml version="1.0" encoding="UTF-8"?><svg id="a" xmlns="http://www.w3.org/2000/svg" viewBox="0 0 800 800"><path d="M400,200.84c-88.62,0-143.72,44.15-165.96,132.77,33.19-44.15,72.03-60.74,116.17-49.79,25.23,6.31,43.48,24.56,63.4,44.81,32.53,33.19,69.37,71.36,152.35,71.36,88.62,0,143.72-44.15,165.96-132.77-33.19,44.15-72.03,60.74-116.17,49.79-25.23-6.31-43.15-24.56-63.4-44.81-32.53-33.19-69.37-71.36-152.35-71.36M234.04,400c-88.62,0-143.72,44.15-165.96,132.77,33.19-44.15,72.03-60.74,116.17-49.79,25.23,6.31,43.15,24.56,63.4,44.81,32.53,33.19,69.37,71.36,152.35,71.36,88.62,0,143.72-44.15,165.96-132.77-33.19,44.15-72.03,60.74-116.17,49.79-25.23-6.31-43.15-24.56-63.4-44.81-32.53-33.19-69.37-71.36-152.35-71.36Z" style="fill:#ffcb74; stroke-width:0px;"/></svg>